<?xml version="1.0" standalone="no"?>
<!DOCTYPE svg PUBLIC "-//W3C//DTD SVG 20010904//EN"
 "http://www.w3.org/TR/2001/REC-SVG-20010904/DTD/svg10.dtd">
<svg version="1.0" xmlns="http://www.w3.org/2000/svg"
 width="934.000000pt" height="1280.000000pt" viewBox="0 0 934.000000 1280.000000"
 preserveAspectRatio="xMidYMid meet">
<metadata>
Created by potrace 1.15, written by Peter Selinger 2001-2017
</metadata>
<g transform="translate(0.000000,1280.000000) scale(0.100000,-0.100000)"
fill="#000000" stroke="none">
<path d="M4457 12790 c-604 -63 -1173 -404 -1445 -865 -125 -212 -188 -447
-199 -737 -14 -378 72 -749 268 -1156 38 -78 69 -144 69 -146 0 -3 -73 -40
-162 -84 -633 -308 -1041 -751 -1213 -1318 -20 -65 -48 -184 -62 -264 -24
-131 -27 -170 -27 -410 -1 -283 5 -341 59 -552 182 -709 523 -1157 1035 -1359
l111 -44 -33 -18 c-18 -10 -100 -55 -183 -99 -540 -291 -991 -608 -1314 -923
-518 -505 -874 -1107 -1099 -1855 -143 -475 -222 -970 -253 -1585 -12 -240 -7
-1127 7 -1297 l7 -78 4647 0 4647 0 7 83 c14 182 19 1064 7 1302 -61 1250
-333 2129 -882 2860 -436 581 -1064 1094 -1862 1523 -87 46 -156 86 -155 87 2
2 34 15 73 30 304 114 644 404 850 725 325 505 401 1326 184 1958 -65 187
-169 382 -288 537 -68 90 -255 278 -351 354 -192 152 -414 284 -652 386 l-87
37 35 61 c121 212 239 491 288 683 52 202 61 275 60 499 0 179 -3 225 -22 313
-44 201 -101 340 -212 517 -294 468 -716 741 -1271 820 -135 20 -457 28 -582
15z m328 -740 c178 -26 312 -76 465 -174 178 -115 309 -291 362 -485 31 -111
30 -341 0 -465 -28 -110 -80 -223 -161 -346 -163 -246 -240 -466 -244 -696 -1
-77 2 -96 24 -144 15 -30 42 -72 60 -92 44 -48 379 -289 514 -369 241 -143
490 -365 627 -559 132 -185 228 -416 269 -646 39 -216 28 -596 -22 -793 -77
-302 -322 -574 -747 -828 -253 -151 -405 -284 -460 -400 -76 -163 11 -378 245
-604 140 -135 306 -255 612 -441 526 -320 762 -499 1077 -813 231 -231 366
-402 528 -669 363 -599 586 -1440 611 -2306 3 -96 7 -214 10 -262 l5 -88
-3889 0 -3889 0 4 158 c24 944 159 1603 443 2172 344 686 911 1270 1741 1792
448 281 607 405 752 587 100 125 148 238 148 352 0 155 -133 306 -465 526
-172 114 -229 158 -342 267 -168 160 -298 360 -372 568 -90 257 -101 586 -30
886 111 468 446 869 984 1177 55 31 132 78 170 103 91 60 235 204 264 264 54
114 49 296 -14 483 -10 28 -75 167 -145 310 -193 390 -247 552 -236 700 7 106
28 180 81 292 108 229 276 399 473 479 160 64 370 89 547 64z"/>
</g>
</svg>
